<?xml version="1.0" encoding="utf-8"?>
<!-- Generator: Adobe Illustrator 16.0.4, SVG Export Plug-In . SVG Version: 6.00 Build 0)  -->
<!DOCTYPE svg PUBLIC "-//W3C//DTD SVG 1.1//EN" "http://www.w3.org/Graphics/SVG/1.1/DTD/svg11.dtd">
<svg version="1.1" id="Ebene_1" xmlns="http://www.w3.org/2000/svg" xmlns:xlink="http://www.w3.org/1999/xlink" x="0px" y="0px"
	 width="841.89px" height="170.079px" viewBox="0 0 841.89 170.079" enable-background="new 0 0 841.89 170.079"
	 xml:space="preserve">
<g>
	<path d="M230.266,85.676c5.322-1.048,7.652-5.326,7.652-11.402c0-11.696-6.152-14.703-16.654-14.703h-19.95v54.457h21.376
		c10.502,0,16.65-4.277,16.65-15.15C239.341,91.297,236.19,86.577,230.266,85.676 M206.713,64.602h14.551
		c5.773,0,11.179,1.272,11.179,9.672c0,8.404-5.333,9.604-11.179,9.604h-14.551V64.602z M222.691,109.004h-15.978V88.749h15.978
		c5.845,0,11.172,1.729,11.172,10.129C233.863,107.278,228.536,109.004,222.691,109.004"/>
	<path d="M168.321,59.197L147.4,114.028h5.398l5.023-13.199h25.651l5.023,13.199h5.629l-20.927-54.831H168.321z M159.774,95.803
		l10.876-28.582l10.872,28.582H159.774z"/>
	<path d="M264.428,59.197l-20.925,54.831h5.397l5.029-13.199h25.65l5.027,13.199h5.621l-20.925-54.831H264.428z M255.877,95.803
		l10.875-28.582l10.875,28.582H255.877z"/>
	<polygon points="381.185,64.3 381.185,59.571 343.91,59.571 343.91,64.674 374.584,64.674 343.231,109.75 343.231,114.028 
		381.56,114.028 381.56,108.928 350.137,108.928 	"/>
	<path d="M82.585,88.077h-4.952v4.953h4.952h4.497v15.373c-2.169,0.525-5.394,1.271-11.773,1.271
		c-10.647,0-16.348-4.422-16.348-21.225v-3.6c0-17.178,5.405-21.078,16.87-21.078c5.856,0,12.004,1.129,14.329,1.651l1.199-4.872
		c-2.173-0.753-8.253-1.954-15.377-1.954c-12.597,0-22.866,2.998-22.866,28.202c0,25.203,10.193,28.055,22.045,28.055
		c8.101,0,14.695-1.652,17.326-2.477V93.03v-4.427v-0.526h-4.952H82.585z"/>
	<path d="M337.022,114.028l-13.309-20.898c7.862-1.684,11.729-6.795,11.729-16.527c0-12.222-5.846-17.03-18.374-17.03h-19.651
		v54.457h5.479v-20.25h14.024c0.263,0,0.51-0.017,0.765-0.021l12.885,20.271L337.022,114.028L337.022,114.028z M302.896,88.749
		V64.602h14.024c7.573,0,13.048,1.42,13.048,12.144c0,10.732-5.251,12.002-12.899,12.002H302.896z"/>
	<path d="M141.516,114.028l-13.3-20.898c7.857-1.684,11.729-6.795,11.729-16.527c0-12.222-5.848-17.03-18.378-17.03h-19.646v54.457
		h5.475v-20.25h14.028c0.258,0,0.506-0.017,0.765-0.021l12.877,20.271L141.516,114.028L141.516,114.028z M107.395,88.749V64.602
		h14.028c7.57,0,13.043,1.42,13.043,12.144c0,10.732-5.246,12.002-12.9,12.002H107.395z"/>
</g>
<g>
	<path d="M500.136,59.571H480.49v54.457h5.471V93.779h14.025c12.447,0,18.529-4.952,18.529-17.177
		C518.515,64.379,512.662,59.571,500.136,59.571 M500.136,88.749H485.96V64.602h14.025c7.58,0,13.057,1.42,13.057,12.144
		C513.042,87.478,507.791,88.749,500.136,88.749"/>
	<path d="M538.591,59.197l-20.926,54.831h5.402l5.021-13.199h25.65l5.027,13.199h5.619L543.46,59.197H538.591z M530.041,95.803
		l10.871-28.582l10.879,28.582H530.041z"/>
	<polygon points="613.957,64.674 632.181,64.674 632.181,114.028 637.656,114.028 637.656,64.674 655.724,64.674 655.724,59.571 
		613.957,59.571 	"/>
	<polygon points="698.054,104.276 668.201,59.571 663.027,59.571 663.027,114.028 668.277,114.028 668.277,69.022 698.353,114.028 
		703.3,114.028 703.3,59.571 698.054,59.571 	"/>
	<polygon points="714.246,114.028 746.193,114.028 746.193,108.928 719.72,108.928 719.72,88.976 741.093,88.976 741.093,83.878 
		719.72,83.878 719.72,64.674 746.193,64.674 746.193,59.571 714.246,59.571 	"/>
	<path d="M793.722,114.028l-13.305-20.898c7.857-1.684,11.729-6.795,11.729-16.527c0-12.222-5.854-17.03-18.373-17.03h-19.65v54.457
		h5.479v-20.25h14.025c0.258,0,0.502-0.017,0.762-0.021l12.883,20.271L793.722,114.028L793.722,114.028z M759.599,88.749V64.602
		h14.025c7.57,0,13.049,1.42,13.049,12.144c0,10.732-5.25,12.002-12.9,12.002H759.599z"/>
	<path d="M611.179,114.028l-13.303-20.898c7.861-1.684,11.732-6.795,11.732-16.527c0-12.222-5.852-17.03-18.379-17.03h-19.646
		v54.457h5.475v-20.25h14.025c0.262,0,0.502-0.017,0.76-0.021l12.887,20.271L611.179,114.028L611.179,114.028z M577.06,88.749
		V64.602h14.025c7.572,0,13.051,1.42,13.051,12.144c0,10.732-5.254,12.002-12.904,12.002H577.06z"/>
</g>
<g>
	<path fill="#51BBAF" d="M400.021,112.336c-0.162,0.492-0.21,0.912-0.424,1.213c-0.227,0.316-0.583,0.695-0.93,0.752
		c-3.237,0.531-6.474,1.1-9.733,1.438c-1.34,0.139-2.283-0.826-2.565-2.182c-0.221-1.062,0.005-2.066,0.948-2.729
		c2.716-1.904,9.14-1.871,11.731,0.103C399.5,111.276,399.732,111.905,400.021,112.336z"/>
	<path fill="#51BBAF" d="M392.73,80.791c-2.196-0.372-4.456-0.683-6.681-1.161c-1.25-0.268-2.128-1.69-1.884-2.839
		c0.288-1.351,1.195-2.216,2.569-2.245c3.348-0.074,6.586,0.588,9.628,1.99c0.722,0.334,1.392,1.159,1.035,2.034
		c-0.285,0.694-0.897,1.467-1.558,1.743C394.927,80.695,393.832,80.644,392.73,80.791z"/>
	<path fill="#51BBAF" d="M397.487,63.105c-2.237-0.107-4.281-0.551-6.2-1.415c-1.38-0.623-2.368-1.688-2.828-3.179
		c-0.27-0.883,0.047-1.645,0.547-2.333c0.562-0.771,1.522-1,2.245-0.696c2.486,1.045,4.913,2.238,7.318,3.465
		c0.513,0.263,0.96,0.847,1.206,1.387c0.236,0.521,0.271,1.188,0.212,1.772c-0.076,0.752-0.782,0.88-1.385,0.984
		C398.199,63.161,397.773,63.105,397.487,63.105z"/>
	<path fill="#51BBAF" d="M468.332,95.815c2.352,0.453,4.885,1.709,6.871,3.885c0.709,0.777,0.758,1.918,0.18,2.885
		c-0.67,1.129-1.721,1.951-3.035,1.508c-2.553-0.86-4.768-2.368-6.535-4.42c-0.695-0.81-0.809-1.858-0.16-2.838
		C466.148,96.083,466.908,95.853,468.332,95.815z"/>
	<path fill="#51BBAF" d="M427.5,135.452c-0.127,0.721-0.266,1.967-0.578,3.166c-0.225,0.86-0.926,1.364-1.84,1.439
		c-0.877,0.072-1.635-0.213-2.17-0.939c-1.674-2.271-1.676-7.271-0.016-9.461c0.889-1.173,2.996-0.933,3.691,0.391
		C427.4,131.586,427.4,133.258,427.5,135.452z"/>
	<path fill="#51BBAF" d="M396.513,96.172c-0.625,1.134-0.78,1.904-1.21,2.113c-2.598,1.262-5.326,2.197-8.237,2.348
		c-1.162,0.061-1.898-0.754-2.287-1.768c-0.408-1.062-0.149-2.215,0.777-2.742c2.774-1.584,5.778-2.183,8.911-1.199
		C395.227,95.163,395.872,95.769,396.513,96.172z"/>
	<path fill="#51BBAF" d="M409.178,126.732c-0.023,0.406,0.109,0.94-0.1,1.204c-1.53,1.934-3.062,3.879-4.738,5.684
		c-0.715,0.768-1.807,0.967-2.883,0.455c-1.039-0.492-1.623-1.955-1.185-3.215c0.938-2.695,2.736-4.617,5.361-5.73
		C407.01,124.545,408.965,125.459,409.178,126.732z"/>
	<path fill="#51BBAF" d="M403.619,38.092c0.299,0.12,1.04,0.187,1.374,0.591c1.69,2.047,3.307,4.16,4.883,6.297
		c0.515,0.7,0.479,1.572-0.04,2.292c-0.521,0.726-1.367,1.053-2.169,0.761c-3.271-1.2-5.513-3.467-6.506-6.835
		C400.741,39.77,402.025,38.039,403.619,38.092z"/>
	<path fill="#51BBAF" d="M468.279,73.468c1.182,0.229,2.422,0.399,3.617,0.721c1.379,0.37,2.002,1.42,1.988,2.795
		c-0.014,1.174-1.205,2.416-2.4,2.443c-2.072,0.044-4.184,0.188-6.104-0.864c-0.959-0.525-1.699-1.308-1.6-2.432
		c0.102-1.121,0.887-1.859,1.984-2.15C466.564,73.77,467.388,73.646,468.279,73.468z"/>
	<path fill="#51BBAF" d="M465.753,54.815c-0.096,0.434-0.055,1.154-0.387,1.589c-1.682,2.197-4.146,3.292-6.611,4.287
		c-0.975,0.393-2.031,0.015-2.748-0.87c-0.738-0.915-0.625-2.56,0.293-3.379c2.029-1.818,4.336-3.131,7.102-3.385
		C464.515,52.955,465.373,53.482,465.753,54.815z"/>
	<path fill="#51BBAF" d="M430.9,36.902c-0.068,1.875,0.1,3.337-0.678,4.653c-0.443,0.756-1.125,1.239-1.965,1.312
		c-0.906,0.081-1.602-0.486-1.895-1.287c-0.959-2.596-1.117-5.199,0.293-7.719c0.455-0.814,1.229-1.038,2.084-0.979
		c0.896,0.063,1.58,0.54,1.779,1.421C430.748,35.296,430.82,36.324,430.9,36.902z"/>
	<path fill="#51BBAF" d="M445.375,126.109c0.303,0.216,1.074,0.571,1.588,1.158c1.422,1.618,2.002,3.638,2.248,5.72
		c0.166,1.389-0.621,2.396-1.865,2.938c-1.039,0.447-2.693-0.258-3.1-1.45c-0.662-1.959-1.215-3.968-1.625-5.993
		C442.378,127.286,443.822,125.899,445.375,126.109z"/>
	<path fill="#51BBAF" d="M451.531,40.307c-0.055,0.399,0.002,0.854-0.174,1.188c-1.102,2.083-2.715,3.602-5.062,4.144
		c-1.033,0.239-2.07,0.082-2.727-0.899c-0.674-1.011-0.42-2.023,0.398-2.766c1.365-1.233,2.785-2.425,4.285-3.483
		C449.318,37.74,451.406,38.976,451.531,40.307z"/>
	<path fill="#51BBAF" d="M467.228,115.254c-0.459-0.412-1.01-0.752-1.561-1.026c-4.51-2.246-7.387-5.957-9.67-10.326
		c-0.891-1.707-0.887-3.067,0.08-4.638c2.654-4.322,2.613-9.16,2.496-13.978c-0.072-3.055-1.42-5.671-3.404-7.885
		c-0.852-0.95-2.195-1.089-3.494-0.547c-1.174,0.489-1.652,1.597-1.393,2.534c1.221,4.381-1.189,8.116-1.945,12.138
		c-0.227,1.202-1.492,1.62-2.316,0.778c-3.395-3.479-7.584-5.829-11.678-8.248c0.115-0.34,0.158-0.542,0.25-0.716
		c0.758-1.419,2.299-1.791,3.559-2.417c7.23-3.607,10.289-12.817,8.311-20.498c-0.471-1.833-1.121-3.594-2.602-4.913
		c-2.842-2.527-5.883-4.564-9.744-5.372c-5.523-1.156-10.852-0.503-16.002,1.425c-9.666,3.617-13.079,13.449-8.16,22.517
		c1.905,3.512,4.6,6.397,7.251,9.603c-1.714,1.312-3.19,2.407-4.628,3.547c-2.711,2.149-4.646,4.896-5.321,8.278
		c-0.69,3.457-1.09,6.984-1.438,10.5c-0.187,1.888,0.424,3.683,1.25,5.429c3.585,7.595,9.943,10.354,17.869,10.214
		c4.615-0.078,9.121-1.174,13.57-2.312c2.834-0.723,5.504-1.967,7.645-4.121c0.828-0.83,1.443-2.012,2.809-2.104
		c2.25,1.907,4.727,3.57,6.645,5.729c3.064,3.445,6.686,2.878,10.389,2.004C468.339,120.292,469.029,116.874,467.228,115.254z
		 M421.357,60.905c1.857-1.042,3.88-1.527,5.251-1.426c4.195,0.1,7.354,1.114,10.334,2.712c0.963,0.516,1.529,1.33,1.393,2.542
		c-0.59,5.212-6.633,12.293-11.688,13.731c-0.932,0.263-1.729-0.035-2.352-0.492c-1.682-1.231-3.218-2.66-4.869-3.935
		C414.844,70.497,416.565,63.602,421.357,60.905z M441.998,104.846c-1.527,3.908-4.15,6.619-8.369,7.703
		c-2.664,0.686-5.352,0.854-8.062,0.916c-1.043,0-2.094,0.076-3.129-0.016c-2.417-0.214-4.265-1.652-6.028-3.107
		c-1.498-1.238-0.689-3.135-1.014-4.719c-0.69-3.381,0.59-6.084,2.559-8.668c1.52-1.994,2.911-4.072,4.938-5.627
		c1.418-1.084,2.66-1.641,4.506-0.611c4.762,2.652,9.125,5.877,13.449,9.145C442.755,101.301,442.931,102.458,441.998,104.846z"/>
</g>
</svg>
